<svg width="20" height="20" viewBox="0 0 20 20" fill="none" xmlns="http://www.w3.org/2000/svg">
<path d="M1.05 19.8C0.716667 19.8 0.458333 19.7083 0.275 19.525C0.0916667 19.3417 0 19.0833 0 18.75V13.7C0 13.4833 0.0833333 13.2875 0.25 13.1125C0.416667 12.9375 0.616667 12.8167 0.85 12.75L5.3 11.8C5.46667 11.7667 5.63333 11.775 5.8 11.825C5.96667 11.875 6.11667 11.9667 6.25 12.1L9 14.75C9.53333 14.4333 10.0583 14.0667 10.575 13.65C11.0917 13.2333 11.6 12.7833 12.1 12.3C12.65 11.75 13.1417 11.2042 13.575 10.6625C14.0083 10.1208 14.3833 9.56668 14.7 9.00001L12.05 6.30001C11.95 6.20001 11.875 6.05835 11.825 5.87501C11.775 5.69168 11.7667 5.48335 11.8 5.25001L12.55 1.00001C12.6 0.783346 12.7208 0.595846 12.9125 0.437512C13.1042 0.279179 13.3167 0.200012 13.55 0.200012H18.55C18.8833 0.200012 19.1417 0.291679 19.325 0.475012C19.5083 0.658346 19.6 0.916679 19.6 1.25001C19.6 3.58335 19.1167 5.87085 18.15 8.11251C17.1833 10.3542 15.7917 12.375 13.975 14.175C12.1583 15.9917 10.1333 17.3833 7.9 18.35C5.66667 19.3167 3.38333 19.8 1.05 19.8Z" fill="black"/>
<path d="M5.35242 8.84183V1.93915H7.4419V8.84183H5.35242ZM2.9458 6.43524V4.34577H9.84855V6.43524H2.9458Z" fill="#FF0000"/>
</svg>
