<svg width="23" height="23" viewBox="0 0 23 23" fill="none" xmlns="http://www.w3.org/2000/svg">
<path d="M1.21824 22.6649C0.830083 22.6649 0.530005 22.5589 0.318003 22.3469C0.106001 22.1349 0 21.8362 0 21.4507V15.611C0 15.3605 0.0963645 15.134 0.289093 14.9317C0.481822 14.7293 0.713097 14.5896 0.982918 14.5125L6.12878 13.4139C6.31708 13.3754 6.50865 13.385 6.7035 13.4428C6.89854 13.5007 7.07315 13.6067 7.22733 13.7608L10.4074 16.8252C11.0241 16.4591 11.6312 16.035 12.2287 15.5532C12.8261 15.0714 13.4139 14.551 13.9921 13.9921C14.6281 13.3561 15.1967 12.7249 15.6978 12.0986C16.1989 11.4722 16.6325 10.8314 16.9987 10.1761L13.9343 7.05388C13.8187 6.93824 13.7319 6.77442 13.6741 6.56242C13.6163 6.35042 13.6067 6.10951 13.6452 5.83969L14.5125 0.925099C14.5703 0.674551 14.7082 0.457731 14.9262 0.274639C15.144 0.0915462 15.3915 0 15.6689 0H21.4507C21.8362 0 22.1349 0.106001 22.3469 0.318003C22.5589 0.530005 22.6649 0.830084 22.6649 1.21824C22.6649 3.91375 22.106 6.5576 20.9882 9.14981C19.8704 11.742 18.2611 14.0837 16.1603 16.1748C14.0596 18.2659 11.7179 19.8704 9.13535 20.9882C6.55278 22.106 3.91375 22.6649 1.21824 22.6649ZM18.4442 7.28515C18.7333 6.59133 18.9549 5.91196 19.1091 5.24704C19.2633 4.58213 19.3885 3.85458 19.4849 3.06439H17.23L16.7674 5.60841L18.4442 7.28515ZM7.51643 18.3285L5.78187 16.594L3.06439 17.1721V19.5138V19.4849C3.81603 19.3885 4.55804 19.2536 5.29041 19.0802C6.02278 18.9067 6.76479 18.6562 7.51643 18.3285Z" fill="black"/>
<path d="M5.92894 10.3756V2.27551H8.38087V10.3756H5.92894ZM3.10484 7.55154V5.09961H11.205V7.55154H3.10484Z" fill="black"/>
</svg>
